<svg width="246" height="206" xmlns="http://www.w3.org/2000/svg" version="1.1" preserveAspectRatio="none">

 <!---->
 <g>
  <title>Layer 1</title>
  <!---->
  <g id="svg_67">
   <g transform="translate(287.052 191.975) scale(1 1)" id="shape_tQYEIpY8ii">
    <g id="svg_19">
     <rect id="svg_20" y="-191.97533" x="-287.052" height="110.07721" width="245.89602" fill="rgba(0,0,0,0)"/>
     <g id="svg_2">
      <svg data-parent="shape_tQYEIpY8ii" preserveAspectRatio="none" class="style-removed" height="90.07721" width="225.89602" xml:space="preserve" viewBox="0 0 241 96.1" y="-181.97533" x="-277.052" id="svg_1" version="1.1" xmlns:xlink="http://www.w3.org/1999/xlink" xmlns="http://www.w3.org/2000/svg">
       <g id="svg_21">
        <path id="svg_22" stroke-width="0" fill="#06B6B8" d="m133.9,46.7c0.5,-0.5 1.1,-1 1.6,-1.5c-4.1,-3.4 -9.3,-5.4 -15,-5.4c-5.7,0 -11,2 -15,5.4c0.6,0.5 1.1,1 1.6,1.5c9.2,9.2 9.2,24.1 0,33.3c-0.5,0.5 -1.1,1 -1.6,1.5c4.1,3.4 9.3,5.4 15,5.4c5.7,0 11,-2 15,-5.4c-0.6,-0.5 -1.1,-1 -1.6,-1.5c-9.2,-9.2 -9.2,-24.1 0,-33.3z"/>
        <circle id="svg_23" stroke-width="0" fill="#06B6B8" r="14.4" cy="14.4" cx="120.5"/>
        <path id="svg_24" stroke-width="0" fill="#ADDB33" d="m96.9,63.3c0,-7.3 3.3,-13.8 8.5,-18.2c-9.3,-7.7 -23,-7.2 -31.7,1.5c-1.1,1.1 -2.1,2.3 -2.9,3.5c9.3,3.1 16.1,11.9 16.1,22.3c0,4.9 -1.5,9.4 -4,13.2c7.6,2.5 16.1,1.2 22.5,-4.2c-5.2,-4.2 -8.5,-10.8 -8.5,-18.1z"/>
        <path id="svg_25" stroke-width="0" fill="#049C25" d="m107.1,46.7c-0.5,-0.5 -1.1,-1 -1.6,-1.5c-5.2,4.3 -8.5,10.9 -8.5,18.2c0,7.3 3.3,13.8 8.5,18.2c0.6,-0.5 1.1,-1 1.6,-1.5c9.2,-9.3 9.2,-24.2 0,-33.4z"/>
        <circle id="svg_26" stroke-width="0" fill="#ADDB33" r="14.4" cy="28.7" cx="55.8"/>
        <path id="svg_27" stroke-width="0" fill="#42CD9A" d="m170.1,50.2c-0.8,-1.2 -1.8,-2.4 -2.9,-3.5c-8.7,-8.7 -22.4,-9.2 -31.7,-1.5c5.2,4.3 8.5,10.9 8.5,18.2c0,7.3 -3.3,13.8 -8.5,18.2c6.4,5.3 15,6.7 22.5,4.2c-2.5,-3.8 -4,-8.3 -4,-13.2c0.1,-10.5 6.8,-19.3 16.1,-22.4z"/>
        <path id="svg_28" stroke-width="0" fill="#02926F" d="m144.1,63.3c0,-7.3 -3.3,-13.8 -8.5,-18.2c-0.6,0.5 -1.1,1 -1.6,1.5c-9.2,9.2 -9.2,24.1 0,33.3c0.5,0.5 1.1,1 1.6,1.5c5.1,-4.2 8.5,-10.8 8.5,-18.1z"/>
        <circle id="svg_29" stroke-width="0" fill="#42CD9A" r="14.4" cy="28.7" cx="185.2"/>
        <path id="svg_30" stroke-width="0" fill="#EE5E0C" d="m177.6,48.9c-2.6,0 -5.2,0.5 -7.5,1.2c6.2,9.2 5.2,21.7 -2.9,29.8c-2.7,2.7 -5.8,4.5 -9.2,5.7c4.2,6.3 11.4,10.4 19.6,10.4c13,0 23.6,-10.6 23.6,-23.6s-10.5,-23.5 -23.6,-23.5z"/>
        <path id="svg_31" stroke-width="0" fill="#3E4C07" d="m170.1,50.2c-9.3,3.1 -16.1,11.9 -16.1,22.3c0,4.9 1.5,9.4 4,13.2c3.3,-1.1 6.5,-3 9.2,-5.7c8.1,-8.1 9.1,-20.7 2.9,-29.8z"/>
        <ellipse id="svg_32" stroke-width="0" fill="#EE5E0C" ry="14.4" rx="14.4" cy="72.5" cx="226.6" transform="matrix(0.3827 -0.9239 0.9239 0.3827 72.8787 254.0719)"/>
        <path id="svg_33" stroke-width="0" fill="#FCD02F" d="m70.8,50.2c-2.4,-0.8 -4.9,-1.2 -7.5,-1.2c-13,0 -23.6,10.6 -23.6,23.6s10.6,23.6 23.6,23.6c8.2,0 15.3,-4.1 19.6,-10.4c-3.3,-1.1 -6.5,-3 -9.2,-5.7c-8.1,-8.2 -9,-20.8 -2.9,-29.9z"/>
        <path id="svg_34" stroke-width="0" fill="#ABB309" d="m70.8,50.2c-6.2,9.2 -5.2,21.7 2.9,29.8c2.7,2.7 5.8,4.5 9.2,5.7c2.5,-3.8 4,-8.3 4,-13.2c0,-10.4 -6.7,-19.2 -16.1,-22.3z"/>
        <circle id="svg_35" stroke-width="0" fill="#FCD02F" r="14.4" cy="72.5" cx="14.4"/>
       </g>
      </svg>
     </g>
    </g>
   </g>
   <g transform="translate(315.009 363.053) scale(1 1)" id="shape_iLLhM9yM8V">
    <g id="svg_36">
     <rect id="svg_37" y="-191.97533" x="-287.052" height="34.88994" width="34.88994" fill="rgba(0,0,0,0)"/>
     <g id="svg_4">
      <svg data-parent="shape_iLLhM9yM8V" preserveAspectRatio="none" class="style-removed" xml:space="preserve" viewBox="1 1 100 100" height="14.88994" width="14.88994" y="-181.97533" x="-277.052" id="svg_3" version="1.1" xmlns:xlink="http://www.w3.org/1999/xlink" xmlns="http://www.w3.org/2000/svg">
       <circle id="svg_38" stroke-width="0" fill="#03e2ac" r="50" cy="51" cx="51"/>
      </svg>
     </g>
    </g>
   </g>
   <g transform="translate(340.928 363.053) scale(1 1)" id="shape_aLJiBIwCCr">
    <g id="svg_39">
     <rect id="svg_40" y="-191.97533" x="-287.052" height="34.88994" width="34.88994" fill="rgba(0,0,0,0)"/>
     <g id="svg_6">
      <svg data-parent="shape_aLJiBIwCCr" preserveAspectRatio="none" class="style-removed" xml:space="preserve" viewBox="1 1 100 100" height="14.88994" width="14.88994" y="-181.97533" x="-277.052" id="svg_5" version="1.1" xmlns:xlink="http://www.w3.org/1999/xlink" xmlns="http://www.w3.org/2000/svg">
       <circle id="svg_41" stroke-width="0" fill="#03e2ac" r="50" cy="51" cx="51"/>
      </svg>
     </g>
    </g>
   </g>
   <g transform="translate(395.761 363.053) scale(1 1)" id="shape_bu9RK9bojo">
    <g id="svg_42">
     <rect id="svg_43" y="-191.97533" x="-287.052" height="34.88994" width="34.88994" fill="rgba(0,0,0,0)"/>
     <g id="svg_8">
      <svg data-parent="shape_bu9RK9bojo" preserveAspectRatio="none" class="style-removed" xml:space="preserve" viewBox="1 1 100 100" height="14.88994" width="14.88994" y="-181.97533" x="-277.052" id="svg_7" version="1.1" xmlns:xlink="http://www.w3.org/1999/xlink" xmlns="http://www.w3.org/2000/svg">
       <circle id="svg_44" stroke-width="0" fill="#bad80a" r="50" cy="51" cx="51"/>
      </svg>
     </g>
    </g>
   </g>
   <g transform="translate(369.842 363.053) scale(1 1)" id="shape_fv2878oNnm">
    <g id="svg_45">
     <rect id="svg_46" y="-191.97533" x="-287.052" height="34.88994" width="34.88994" fill="rgba(0,0,0,0)"/>
     <g id="svg_10">
      <svg data-parent="shape_fv2878oNnm" preserveAspectRatio="none" class="style-removed" xml:space="preserve" viewBox="1 1 100 100" height="14.88994" width="14.88994" y="-181.97533" x="-277.052" id="svg_9" version="1.1" xmlns:xlink="http://www.w3.org/1999/xlink" xmlns="http://www.w3.org/2000/svg">
       <circle id="svg_47" stroke-width="0" fill="#bad80a" r="50" cy="51" cx="51"/>
      </svg>
     </g>
    </g>
   </g>
   <g transform="translate(421.366 363.053) scale(1 1)" id="shape_scviAojQ8v">
    <g id="svg_48">
     <rect id="svg_49" y="-191.97533" x="-287.052" height="34.88994" width="34.88994" fill="rgba(0,0,0,0)"/>
     <g id="svg_12">
      <svg data-parent="shape_scviAojQ8v" preserveAspectRatio="none" class="style-removed" xml:space="preserve" viewBox="1 1 100 100" height="14.88994" width="14.88994" y="-181.97533" x="-277.052" id="svg_11" version="1.1" xmlns:xlink="http://www.w3.org/1999/xlink" xmlns="http://www.w3.org/2000/svg">
       <circle id="svg_50" stroke-width="0" fill="#bad80a" r="50" cy="51" cx="51"/>
      </svg>
     </g>
    </g>
   </g>
   <g transform="translate(476.592 363.053) scale(1 1)" id="shape_8DfBY2qaMA">
    <g id="svg_51">
     <rect id="svg_52" y="-191.97533" x="-287.052" height="34.88994" width="34.88994" fill="rgba(0,0,0,0)"/>
     <g id="svg_14">
      <svg data-parent="shape_8DfBY2qaMA" preserveAspectRatio="none" class="style-removed" xml:space="preserve" viewBox="1 1 100 100" height="14.88994" width="14.88994" y="-181.97533" x="-277.052" id="svg_13" version="1.1" xmlns:xlink="http://www.w3.org/1999/xlink" xmlns="http://www.w3.org/2000/svg">
       <circle id="svg_53" stroke-width="0" fill="#03e2ac" r="50" cy="51" cx="51"/>
      </svg>
     </g>
    </g>
   </g>
   <g transform="translate(450.673 363.053) scale(1 1)" id="shape_lwVJtr76Wv">
    <g id="svg_54">
     <rect id="svg_55" y="-191.97533" x="-287.052" height="34.88994" width="34.88994" fill="rgba(0,0,0,0)"/>
     <g id="svg_16">
      <svg data-parent="shape_lwVJtr76Wv" preserveAspectRatio="none" class="style-removed" xml:space="preserve" viewBox="1 1 100 100" height="14.88994" width="14.88994" y="-181.97533" x="-277.052" id="svg_15" version="1.1" xmlns:xlink="http://www.w3.org/1999/xlink" xmlns="http://www.w3.org/2000/svg">
       <circle id="svg_56" stroke-width="0" fill="#03e2ac" r="50" cy="51" cx="51"/>
      </svg>
     </g>
    </g>
   </g>
   <g transform="translate(206.22 61.7125) scale(1 1)" id="shape_C4V42wBDKu">
    <svg y="-181.97533" x="-277.052" id="svg_57" data-parent="shape_C4V42wBDKu" viewBox="0 0 531.12 516.6800000000001" height="516.68" width="531.12" version="1.1" xmlns:xlink="http://www.w3.org/1999/xlink" xmlns="http://www.w3.org/2000/svg">
     <rect id="svg_58" y="215.34" x="71.78" height="86" width="244" fill="rgba(0,0,0,0)"/>
     <g id="svg_59" data-width="242.75996">
      <path id="svg_60" data-glyph-descender="-10.12098" data-glyph-ascender="61.65902" data-glyph-h="71.78" data-glyph-w="19.09348" stroke-width="0.12" stroke="rgb(2, 146, 111)" fill="rgb(2, 146, 111)" d="m77.07002,283.34l0,-34.96l9.61,0l0,34.96l-9.61,0zm9.61,-38.55l-9.61,0l0,-9.33l9.61,0l0,9.33z"/>
      <path id="svg_61" data-glyph-descender="-10.12098" data-glyph-ascender="61.65902" data-glyph-h="71.78" data-glyph-w="41.91952" stroke-width="0.12" stroke="rgb(2, 146, 111)" fill="rgb(2, 146, 111)" d="m106.9935,283.34l0,-39.34l-15.21,0l0,-8.54l41.27,0l0,8.54l-15.86,0l0,39.34l-10.2,0z"/>
      <path id="svg_62" data-glyph-descender="-10.12098" data-glyph-ascender="61.65902" data-glyph-h="71.78" data-glyph-w="43.92936" stroke-width="0.12" stroke="rgb(2, 146, 111)" fill="rgb(2, 146, 111)" d="m157.03302,235.46l17.15,0l0,8.54l-13.28,0q-5.17,0 -7.54,0.72q-2.36,0.72 -3.94,2.8l0,0q-1.08,1.44 -1.47,2.87q-0.4,1.44 -0.69,4.88l0,0l26.92,0l0,8.55l-26.92,0q0.58,6.17 3.66,8.57q3.09,2.41 10.48,2.41l0,0l12.78,0l0,8.54l-13.28,0q-5.38,0 -9.47,-0.65l0,0q-6.46,-1.07 -10.27,-5.67l0,0q-5.45,-6.6 -5.45,-17.87l0,0q0,-12.49 7.68,-19.45l0,0q2.65,-2.37 5.63,-3.3q2.98,-0.94 8.01,-0.94l0,0z"/>
      <path id="svg_63" data-glyph-descender="-10.12098" data-glyph-ascender="61.65902" data-glyph-h="71.78" data-glyph-w="43.49868" stroke-width="0.12" stroke="rgb(2, 146, 111)" fill="rgb(2, 146, 111)" d="m203.97238,274.8l14.64,0l0,8.54l-16.72,0q-4.74,0 -7.25,-0.5l0,0q-8.83,-1.73 -12.56,-9.84l0,0q-2.44,-5.45 -2.44,-13.49l0,0q0,-9.62 3.73,-15.65l0,0q2.73,-4.38 7.29,-6.39q4.55,-2.01 11.73,-2.01l0,0l16.22,0l0,8.54l-15.07,0q-6.82,0 -9.98,3.67l0,0q-2.65,3.01 -2.65,10.91l0,0q0,10.62 4.09,13.92l0,0q2.87,2.3 8.97,2.3l0,0z"/>
      <path id="svg_64" data-glyph-descender="-10.12098" data-glyph-ascender="61.65902" data-glyph-h="71.78" data-glyph-w="48.59506" stroke-width="0.12" stroke="rgb(2, 146, 111)" fill="rgb(2, 146, 111)" d="m254.43106,235.46l10.12,0l0,47.88l-10.12,0l0,-19.81l-18.52,0l0,19.81l-10.19,0l0,-47.88l10.19,0l0,19.53l18.52,0l0,-19.53z"/>
      <path id="svg_65" data-glyph-descender="-10.12098" data-glyph-ascender="61.65902" data-glyph-h="71.78" data-glyph-w="45.72386" stroke-width="0.12" stroke="rgb(2, 146, 111)" fill="rgb(2, 146, 111)" d="m269.72612,283.34l16.29,-24.19l-15.72,-23.69l12.49,0l9.4,15.79l10.2,-15.79l12.34,0l-16.22,23.69l16.22,24.19l-11.98,0l-10.56,-16.44l-10.33,16.44l-12.13,0z"/>
     </g>
    </svg>
   </g>
  </g>
 </g>
</svg>