<svg width="244" height="111" xmlns="http://www.w3.org/2000/svg" preserveAspectRatio="none" version="1.1">
 <!---->

 <g>
  <title>Layer 1</title>
  <!---->
  <g id="shape_iLLhM9yM8V" transform="translate(315.009 363.053) scale(1 1)">
   <g id="svg_36">
    <rect fill="rgba(0,0,0,0)" width="34.88994" height="34.88994" x="-288.00001" y="-287.05252" id="svg_37"/>
    <svg version="1.1" id="svg_79" x="-278.00001" y="-277.05252" width="14.88994" height="14.88994" viewBox="1 1 100 100" xml:space="preserve" class="style-removed" preserveAspectRatio="none" data-parent="shape_iLLhM9yM8V" xmlns="http://www.w3.org/2000/svg" xmlns:xlink="http://www.w3.org/1999/xlink">
     <circle cx="51" cy="51" r="50" fill="#03e2ac" stroke-width="0" id="svg_80"/>
    </svg>
   </g>
  </g>
  <g id="shape_aLJiBIwCCr" transform="translate(340.928 363.053) scale(1 1)">
   <g id="svg_39">
    <rect fill="rgba(0,0,0,0)" width="34.88994" height="34.88994" x="-288.00001" y="-287.05252" id="svg_40"/>
    <svg version="1.1" id="svg_81" x="-278.00001" y="-277.05252" width="14.88994" height="14.88994" viewBox="1 1 100 100" xml:space="preserve" class="style-removed" preserveAspectRatio="none" data-parent="shape_aLJiBIwCCr" xmlns="http://www.w3.org/2000/svg" xmlns:xlink="http://www.w3.org/1999/xlink">
     <circle cx="51" cy="51" r="50" fill="#03e2ac" stroke-width="0" id="svg_82"/>
    </svg>
   </g>
  </g>
  <g id="shape_bu9RK9bojo" transform="translate(395.761 363.053) scale(1 1)">
   <g id="svg_42">
    <rect fill="rgba(0,0,0,0)" width="34.88994" height="34.88994" x="-288.00001" y="-287.05252" id="svg_43"/>
    <svg version="1.1" id="svg_83" x="-278.00001" y="-277.05252" width="14.88994" height="14.88994" viewBox="1 1 100 100" xml:space="preserve" class="style-removed" preserveAspectRatio="none" data-parent="shape_bu9RK9bojo" xmlns="http://www.w3.org/2000/svg" xmlns:xlink="http://www.w3.org/1999/xlink">
     <circle cx="51" cy="51" r="50" fill="#bad80a" stroke-width="0" id="svg_84"/>
    </svg>
   </g>
  </g>
  <g id="shape_fv2878oNnm" transform="translate(369.842 363.053) scale(1 1)">
   <g id="svg_45">
    <rect fill="rgba(0,0,0,0)" width="34.88994" height="34.88994" x="-288.00001" y="-287.05252" id="svg_46"/>
    <svg version="1.1" id="svg_85" x="-278.00001" y="-277.05252" width="14.88994" height="14.88994" viewBox="1 1 100 100" xml:space="preserve" class="style-removed" preserveAspectRatio="none" data-parent="shape_fv2878oNnm" xmlns="http://www.w3.org/2000/svg" xmlns:xlink="http://www.w3.org/1999/xlink">
     <circle cx="51" cy="51" r="50" fill="#bad80a" stroke-width="0" id="svg_86"/>
    </svg>
   </g>
  </g>
  <g id="shape_scviAojQ8v" transform="translate(421.366 363.053) scale(1 1)">
   <g id="svg_48">
    <rect fill="rgba(0,0,0,0)" width="34.88994" height="34.88994" x="-288.00001" y="-287.05252" id="svg_49"/>
    <svg version="1.1" id="svg_87" x="-278.00001" y="-277.05252" width="14.88994" height="14.88994" viewBox="1 1 100 100" xml:space="preserve" class="style-removed" preserveAspectRatio="none" data-parent="shape_scviAojQ8v" xmlns="http://www.w3.org/2000/svg" xmlns:xlink="http://www.w3.org/1999/xlink">
     <circle cx="51" cy="51" r="50" fill="#bad80a" stroke-width="0" id="svg_88"/>
    </svg>
   </g>
  </g>
  <g id="shape_8DfBY2qaMA" transform="translate(476.592 363.053) scale(1 1)">
   <g id="svg_51">
    <rect fill="rgba(0,0,0,0)" width="34.88994" height="34.88994" x="-288.00001" y="-287.05252" id="svg_52"/>
    <svg version="1.1" id="svg_89" x="-278.00001" y="-277.05252" width="14.88994" height="14.88994" viewBox="1 1 100 100" xml:space="preserve" class="style-removed" preserveAspectRatio="none" data-parent="shape_8DfBY2qaMA" xmlns="http://www.w3.org/2000/svg" xmlns:xlink="http://www.w3.org/1999/xlink">
     <circle cx="51" cy="51" r="50" fill="#03e2ac" stroke-width="0" id="svg_90"/>
    </svg>
   </g>
  </g>
  <g id="shape_lwVJtr76Wv" transform="translate(450.673 363.053) scale(1 1)">
   <g id="svg_54">
    <rect fill="rgba(0,0,0,0)" width="34.88994" height="34.88994" x="-288.00001" y="-287.05252" id="svg_55"/>
    <svg version="1.1" id="svg_91" x="-278.00001" y="-277.05252" width="14.88994" height="14.88994" viewBox="1 1 100 100" xml:space="preserve" class="style-removed" preserveAspectRatio="none" data-parent="shape_lwVJtr76Wv" xmlns="http://www.w3.org/2000/svg" xmlns:xlink="http://www.w3.org/1999/xlink">
     <circle cx="51" cy="51" r="50" fill="#03e2ac" stroke-width="0" id="svg_92"/>
    </svg>
   </g>
  </g>
  <g id="shape_C4V42wBDKu" transform="translate(206.22 61.7125) scale(1 1)">
   <svg version="1.1" width="531.12" height="516.68" viewBox="0 0 531.12 516.6800000000001" data-parent="shape_C4V42wBDKu" id="svg_93" x="-278.00001" y="-277.05252" xmlns="http://www.w3.org/2000/svg" xmlns:xlink="http://www.w3.org/1999/xlink">
    <rect fill="rgba(0,0,0,0)" width="244" height="86" x="71.78" y="215.34" id="svg_101"/>
    <g data-width="242.75996" id="svg_94">
     <path d="m77.07002,283.34l0,-34.96l9.61,0l0,34.96l-9.61,0zm9.61,-38.55l-9.61,0l0,-9.33l9.61,0l0,9.33z" fill="#ffffff" stroke="rgb(2, 146, 111)" stroke-width="0.12" data-glyph-w="19.09348" data-glyph-h="71.78" data-glyph-ascender="61.65902" data-glyph-descender="-10.12098" id="svg_100"/>
     <path d="m106.9935,283.34l0,-39.34l-15.21,0l0,-8.54l41.27,0l0,8.54l-15.86,0l0,39.34l-10.2,0z" fill="#ffffff" stroke="rgb(2, 146, 111)" stroke-width="0.12" data-glyph-w="41.91952" data-glyph-h="71.78" data-glyph-ascender="61.65902" data-glyph-descender="-10.12098" id="svg_99"/>
     <path d="m157.03302,235.46l17.15,0l0,8.54l-13.28,0q-5.17,0 -7.54,0.72q-2.36,0.72 -3.94,2.8l0,0q-1.08,1.44 -1.47,2.87q-0.4,1.44 -0.69,4.88l0,0l26.92,0l0,8.55l-26.92,0q0.58,6.17 3.66,8.57q3.09,2.41 10.48,2.41l0,0l12.78,0l0,8.54l-13.28,0q-5.38,0 -9.47,-0.65l0,0q-6.46,-1.07 -10.27,-5.67l0,0q-5.45,-6.6 -5.45,-17.87l0,0q0,-12.49 7.68,-19.45l0,0q2.65,-2.37 5.63,-3.3q2.98,-0.94 8.01,-0.94l0,0z" fill="#ffffff" stroke="rgb(2, 146, 111)" stroke-width="0.12" data-glyph-w="43.92936" data-glyph-h="71.78" data-glyph-ascender="61.65902" data-glyph-descender="-10.12098" id="svg_98"/>
     <path d="m203.97238,274.8l14.64,0l0,8.54l-16.72,0q-4.74,0 -7.25,-0.5l0,0q-8.83,-1.73 -12.56,-9.84l0,0q-2.44,-5.45 -2.44,-13.49l0,0q0,-9.62 3.73,-15.65l0,0q2.73,-4.38 7.29,-6.39q4.55,-2.01 11.73,-2.01l0,0l16.22,0l0,8.54l-15.07,0q-6.82,0 -9.98,3.67l0,0q-2.65,3.01 -2.65,10.91l0,0q0,10.62 4.09,13.92l0,0q2.87,2.3 8.97,2.3l0,0z" fill="#ffffff" stroke="rgb(2, 146, 111)" stroke-width="0.12" data-glyph-w="43.49868" data-glyph-h="71.78" data-glyph-ascender="61.65902" data-glyph-descender="-10.12098" id="svg_97"/>
     <path d="m254.43106,235.46l10.12,0l0,47.88l-10.12,0l0,-19.81l-18.52,0l0,19.81l-10.19,0l0,-47.88l10.19,0l0,19.53l18.52,0l0,-19.53z" fill="#ffffff" stroke="rgb(2, 146, 111)" stroke-width="0.12" data-glyph-w="48.59506" data-glyph-h="71.78" data-glyph-ascender="61.65902" data-glyph-descender="-10.12098" id="svg_96"/>
     <path d="m269.72612,283.34l16.29,-24.19l-15.72,-23.69l12.49,0l9.4,15.79l10.2,-15.79l12.34,0l-16.22,23.69l16.22,24.19l-11.98,0l-10.56,-16.44l-10.33,16.44l-12.13,0z" fill="#ffffff" stroke="rgb(2, 146, 111)" stroke-width="0.12" data-glyph-w="45.72386" data-glyph-h="71.78" data-glyph-ascender="61.65902" data-glyph-descender="-10.12098" id="svg_95"/>
    </g>
   </svg>
  </g>
 </g>
</svg>